<?xml version="1.0"?>
<!-- Generated by SVGo -->
<svg width="1200" height="518"
     xmlns="http://www.w3.org/2000/svg"
     xmlns:xlink="http://www.w3.org/1999/xlink">
<desc>12345678-1234-1234-1234-123456789012</desc>
<rect x="0" y="0" width="1200" height="518" style="fill:rgb(255,255,255)" />
<rect x="0" y="0" width="200" height="518" style="fill:rgb(92,158,173)" />
<rect x="200" y="0" width="20" height="518" style="fill:rgb(50,98,115)" />
<circle cx="210" cy="100" r="50" style="fill:rgb(50,98,115)" />
<text x="300" y="100" style="text-anchor:left;font-size:36px;fill:black" >Phantom of the Opera</text>
<text x="300" y="150" style="text-anchor:left;font-size:24px;fill:black" >2023-06-07</text>
<text x="300" y="200" style="text-anchor:left;font-size:24px;fill:black" >Sydney Opera House</text>
<text x="300" y="250" style="text-anchor:left;font-size:24px;fill:black" >12345678-1234-1234-1234-123456789012</text>
<line x1="300" y1="300" x2="900" y2="300" style="stroke:rgb(0,0,0);stroke-width:2" />
<text x="300" y="350" style="text-anchor:left;font-size:24px;fill:black" >Evan Hughes</text>
<text x="300" y="400" style="text-anchor:left;font-size:24px;fill:black" >example@uq.edu.au</text>
<text x="300" y="450" style="text-anchor:left;font-size:24px;fill:black" >12345678-1234-1234-1234-123456789012</text>
<rect x="1190" y="0" width="10" height="518" style="fill:rgb(255,215,0)" />
<rect x="1000" y="80" width="150" height="1" style="fill:rgb(0,0,0)" />
<rect x="1000" y="81" width="150" height="1" style="fill:rgb(0,0,0)" />
<rect x="1000" y="83" width="150" height="1" style="fill:rgb(0,0,0)" />
<rect x="1000" y="86" width="150" height="1" style="fill:rgb(0,0,0)" />
<rect x="1000" y="87" width="150" height="1" style="fill:rgb(0,0,0)" />
<rect x="1000" y="88" width="150" height="1" style="fill:rgb(0,0,0)" />
<rect x="1000" y="91" width="150" height="1" style="fill:rgb(0,0,0)" />
<rect x="1000" y="93" width="150" height="1" style="fill:rgb(0,0,0)" />
<rect x="1000" y="94" width="150" height="1" style="fill:rgb(0,0,0)" />
<rect x="1000" y="97" width="150" height="1" style="fill:rgb(0,0,0)" />
<rect x="1000" y="98" width="150" height="1" style="fill:rgb(0,0,0)" />
<rect x="1000" y="99" width="150" height="1" style="fill:rgb(0,0,0)" />
<rect x="1000" y="102" width="150" height="1" style="fill:rgb(0,0,0)" />
<rect x="1000" y="106" width="150" height="1" style="fill:rgb(0,0,0)" />
<rect x="1000" y="108" width="150" height="1" style="fill:rgb(0,0,0)" />
<rect x="1000" y="109" width="150" height="1" style="fill:rgb(0,0,0)" />
<rect x="1000" y="113" width="150" height="1" style="fill:rgb(0,0,0)" />
<rect x="1000" y="114" width="150" height="1" style="fill:rgb(0,0,0)" />
<rect x="1000" y="115" width="150" height="1" style="fill:rgb(0,0,0)" />
<rect x="1000" y="119" width="150" height="1" style="fill:rgb(0,0,0)" />
<rect x="1000" y="121" width="150" height="1" style="fill:rgb(0,0,0)" />
<rect x="1000" y="122" width="150" height="1" style="fill:rgb(0,0,0)" />
<rect x="1000" y="124" width="150" height="1" style="fill:rgb(0,0,0)" />
<rect x="1000" y="125" width="150" height="1" style="fill:rgb(0,0,0)" />
<rect x="1000" y="130" width="150" height="1" style="fill:rgb(0,0,0)" />
<rect x="1000" y="132" width="150" height="1" style="fill:rgb(0,0,0)" />
<rect x="1000" y="135" width="150" height="1" style="fill:rgb(0,0,0)" />
<rect x="1000" y="137" width="150" height="1" style="fill:rgb(0,0,0)" />
<rect x="1000" y="138" width="150" height="1" style="fill:rgb(0,0,0)" />
<rect x="1000" y="139" width="150" height="1" style="fill:rgb(0,0,0)" />
<rect x="1000" y="140" width="150" height="1" style="fill:rgb(0,0,0)" />
<rect x="1000" y="142" width="150" height="1" style="fill:rgb(0,0,0)" />
<rect x="1000" y="143" width="150" height="1" style="fill:rgb(0,0,0)" />
<rect x="1000" y="144" width="150" height="1" style="fill:rgb(0,0,0)" />
<rect x="1000" y="146" width="150" height="1" style="fill:rgb(0,0,0)" />
<rect x="1000" y="149" width="150" height="1" style="fill:rgb(0,0,0)" />
<rect x="1000" y="150" width="150" height="1" style="fill:rgb(0,0,0)" />
<rect x="1000" y="152" width="150" height="1" style="fill:rgb(0,0,0)" />
<rect x="1000" y="153" width="150" height="1" style="fill:rgb(0,0,0)" />
<rect x="1000" y="154" width="150" height="1" style="fill:rgb(0,0,0)" />
<rect x="1000" y="157" width="150" height="1" style="fill:rgb(0,0,0)" />
<rect x="1000" y="159" width="150" height="1" style="fill:rgb(0,0,0)" />
<rect x="1000" y="160" width="150" height="1" style="fill:rgb(0,0,0)" />
<rect x="1000" y="161" width="150" height="1" style="fill:rgb(0,0,0)" />
<rect x="1000" y="163" width="150" height="1" style="fill:rgb(0,0,0)" />
<rect x="1000" y="164" width="150" height="1" style="fill:rgb(0,0,0)" />
<rect x="1000" y="165" width="150" height="1" style="fill:rgb(0,0,0)" />
<rect x="1000" y="166" width="150" height="1" style="fill:rgb(0,0,0)" />
<rect x="1000" y="168" width="150" height="1" style="fill:rgb(0,0,0)" />
<rect x="1000" y="170" width="150" height="1" style="fill:rgb(0,0,0)" />
<rect x="1000" y="171" width="150" height="1" style="fill:rgb(0,0,0)" />
<rect x="1000" y="174" width="150" height="1" style="fill:rgb(0,0,0)" />
<rect x="1000" y="175" width="150" height="1" style="fill:rgb(0,0,0)" />
<rect x="1000" y="176" width="150" height="1" style="fill:rgb(0,0,0)" />
<rect x="1000" y="179" width="150" height="1" style="fill:rgb(0,0,0)" />
<rect x="1000" y="183" width="150" height="1" style="fill:rgb(0,0,0)" />
<rect x="1000" y="185" width="150" height="1" style="fill:rgb(0,0,0)" />
<rect x="1000" y="186" width="150" height="1" style="fill:rgb(0,0,0)" />
<rect x="1000" y="190" width="150" height="1" style="fill:rgb(0,0,0)" />
<rect x="1000" y="192" width="150" height="1" style="fill:rgb(0,0,0)" />
<rect x="1000" y="193" width="150" height="1" style="fill:rgb(0,0,0)" />
<rect x="1000" y="194" width="150" height="1" style="fill:rgb(0,0,0)" />
<rect x="1000" y="195" width="150" height="1" style="fill:rgb(0,0,0)" />
<rect x="1000" y="197" width="150" height="1" style="fill:rgb(0,0,0)" />
<rect x="1000" y="198" width="150" height="1" style="fill:rgb(0,0,0)" />
<rect x="1000" y="199" width="150" height="1" style="fill:rgb(0,0,0)" />
<rect x="1000" y="201" width="150" height="1" style="fill:rgb(0,0,0)" />
<rect x="1000" y="204" width="150" height="1" style="fill:rgb(0,0,0)" />
<rect x="1000" y="205" width="150" height="1" style="fill:rgb(0,0,0)" />
<rect x="1000" y="207" width="150" height="1" style="fill:rgb(0,0,0)" />
<rect x="1000" y="208" width="150" height="1" style="fill:rgb(0,0,0)" />
<rect x="1000" y="209" width="150" height="1" style="fill:rgb(0,0,0)" />
<rect x="1000" y="212" width="150" height="1" style="fill:rgb(0,0,0)" />
<rect x="1000" y="214" width="150" height="1" style="fill:rgb(0,0,0)" />
<rect x="1000" y="215" width="150" height="1" style="fill:rgb(0,0,0)" />
<rect x="1000" y="216" width="150" height="1" style="fill:rgb(0,0,0)" />
<rect x="1000" y="218" width="150" height="1" style="fill:rgb(0,0,0)" />
<rect x="1000" y="219" width="150" height="1" style="fill:rgb(0,0,0)" />
<rect x="1000" y="220" width="150" height="1" style="fill:rgb(0,0,0)" />
<rect x="1000" y="221" width="150" height="1" style="fill:rgb(0,0,0)" />
<rect x="1000" y="223" width="150" height="1" style="fill:rgb(0,0,0)" />
<rect x="1000" y="225" width="150" height="1" style="fill:rgb(0,0,0)" />
<rect x="1000" y="226" width="150" height="1" style="fill:rgb(0,0,0)" />
<rect x="1000" y="229" width="150" height="1" style="fill:rgb(0,0,0)" />
<rect x="1000" y="230" width="150" height="1" style="fill:rgb(0,0,0)" />
<rect x="1000" y="231" width="150" height="1" style="fill:rgb(0,0,0)" />
<rect x="1000" y="234" width="150" height="1" style="fill:rgb(0,0,0)" />
<rect x="1000" y="238" width="150" height="1" style="fill:rgb(0,0,0)" />
<rect x="1000" y="240" width="150" height="1" style="fill:rgb(0,0,0)" />
<rect x="1000" y="241" width="150" height="1" style="fill:rgb(0,0,0)" />
<rect x="1000" y="245" width="150" height="1" style="fill:rgb(0,0,0)" />
<rect x="1000" y="247" width="150" height="1" style="fill:rgb(0,0,0)" />
<rect x="1000" y="248" width="150" height="1" style="fill:rgb(0,0,0)" />
<rect x="1000" y="249" width="150" height="1" style="fill:rgb(0,0,0)" />
<rect x="1000" y="250" width="150" height="1" style="fill:rgb(0,0,0)" />
<rect x="1000" y="252" width="150" height="1" style="fill:rgb(0,0,0)" />
<rect x="1000" y="253" width="150" height="1" style="fill:rgb(0,0,0)" />
<rect x="1000" y="254" width="150" height="1" style="fill:rgb(0,0,0)" />
<rect x="1000" y="256" width="150" height="1" style="fill:rgb(0,0,0)" />
<rect x="1000" y="259" width="150" height="1" style="fill:rgb(0,0,0)" />
<rect x="1000" y="260" width="150" height="1" style="fill:rgb(0,0,0)" />
<rect x="1000" y="262" width="150" height="1" style="fill:rgb(0,0,0)" />
<rect x="1000" y="263" width="150" height="1" style="fill:rgb(0,0,0)" />
<rect x="1000" y="264" width="150" height="1" style="fill:rgb(0,0,0)" />
<rect x="1000" y="267" width="150" height="1" style="fill:rgb(0,0,0)" />
<rect x="1000" y="269" width="150" height="1" style="fill:rgb(0,0,0)" />
<rect x="1000" y="270" width="150" height="1" style="fill:rgb(0,0,0)" />
<rect x="1000" y="271" width="150" height="1" style="fill:rgb(0,0,0)" />
<rect x="1000" y="273" width="150" height="1" style="fill:rgb(0,0,0)" />
<rect x="1000" y="274" width="150" height="1" style="fill:rgb(0,0,0)" />
<rect x="1000" y="275" width="150" height="1" style="fill:rgb(0,0,0)" />
<rect x="1000" y="276" width="150" height="1" style="fill:rgb(0,0,0)" />
<rect x="1000" y="278" width="150" height="1" style="fill:rgb(0,0,0)" />
<rect x="1000" y="280" width="150" height="1" style="fill:rgb(0,0,0)" />
<rect x="1000" y="281" width="150" height="1" style="fill:rgb(0,0,0)" />
<rect x="1000" y="284" width="150" height="1" style="fill:rgb(0,0,0)" />
<rect x="1000" y="285" width="150" height="1" style="fill:rgb(0,0,0)" />
<rect x="1000" y="286" width="150" height="1" style="fill:rgb(0,0,0)" />
<rect x="1000" y="289" width="150" height="1" style="fill:rgb(0,0,0)" />
<rect x="1000" y="293" width="150" height="1" style="fill:rgb(0,0,0)" />
<rect x="1000" y="295" width="150" height="1" style="fill:rgb(0,0,0)" />
<rect x="1000" y="296" width="150" height="1" style="fill:rgb(0,0,0)" />
<rect x="1000" y="300" width="150" height="1" style="fill:rgb(0,0,0)" />
<rect x="1000" y="302" width="150" height="1" style="fill:rgb(0,0,0)" />
<rect x="1000" y="303" width="150" height="1" style="fill:rgb(0,0,0)" />
<rect x="1000" y="304" width="150" height="1" style="fill:rgb(0,0,0)" />
<rect x="1000" y="305" width="150" height="1" style="fill:rgb(0,0,0)" />
<rect x="1000" y="307" width="150" height="1" style="fill:rgb(0,0,0)" />
<rect x="1000" y="308" width="150" height="1" style="fill:rgb(0,0,0)" />
<rect x="1000" y="309" width="150" height="1" style="fill:rgb(0,0,0)" />
<rect x="1000" y="311" width="150" height="1" style="fill:rgb(0,0,0)" />
<rect x="1000" y="314" width="150" height="1" style="fill:rgb(0,0,0)" />
<rect x="1000" y="315" width="150" height="1" style="fill:rgb(0,0,0)" />
<rect x="1000" y="317" width="150" height="1" style="fill:rgb(0,0,0)" />
<rect x="1000" y="318" width="150" height="1" style="fill:rgb(0,0,0)" />
<rect x="1000" y="319" width="150" height="1" style="fill:rgb(0,0,0)" />
<rect x="1000" y="322" width="150" height="1" style="fill:rgb(0,0,0)" />
<rect x="1000" y="324" width="150" height="1" style="fill:rgb(0,0,0)" />
<rect x="1000" y="325" width="150" height="1" style="fill:rgb(0,0,0)" />
<rect x="1000" y="326" width="150" height="1" style="fill:rgb(0,0,0)" />
<rect x="1000" y="328" width="150" height="1" style="fill:rgb(0,0,0)" />
<rect x="1000" y="329" width="150" height="1" style="fill:rgb(0,0,0)" />
<rect x="1000" y="330" width="150" height="1" style="fill:rgb(0,0,0)" />
<rect x="1000" y="331" width="150" height="1" style="fill:rgb(0,0,0)" />
<rect x="1000" y="333" width="150" height="1" style="fill:rgb(0,0,0)" />
<rect x="1000" y="335" width="150" height="1" style="fill:rgb(0,0,0)" />
<rect x="1000" y="336" width="150" height="1" style="fill:rgb(0,0,0)" />
<rect x="1000" y="339" width="150" height="1" style="fill:rgb(0,0,0)" />
<rect x="1000" y="340" width="150" height="1" style="fill:rgb(0,0,0)" />
<rect x="1000" y="341" width="150" height="1" style="fill:rgb(0,0,0)" />
<rect x="1000" y="344" width="150" height="1" style="fill:rgb(0,0,0)" />
<rect x="1000" y="348" width="150" height="1" style="fill:rgb(0,0,0)" />
<rect x="1000" y="350" width="150" height="1" style="fill:rgb(0,0,0)" />
<rect x="1000" y="351" width="150" height="1" style="fill:rgb(0,0,0)" />
<rect x="1000" y="355" width="150" height="1" style="fill:rgb(0,0,0)" />
<rect x="1000" y="356" width="150" height="1" style="fill:rgb(0,0,0)" />
<rect x="1000" y="357" width="150" height="1" style="fill:rgb(0,0,0)" />
<rect x="1000" y="361" width="150" height="1" style="fill:rgb(0,0,0)" />
<rect x="1000" y="363" width="150" height="1" style="fill:rgb(0,0,0)" />
<rect x="1000" y="364" width="150" height="1" style="fill:rgb(0,0,0)" />
<rect x="1000" y="366" width="150" height="1" style="fill:rgb(0,0,0)" />
<rect x="1000" y="367" width="150" height="1" style="fill:rgb(0,0,0)" />
<rect x="1000" y="372" width="150" height="1" style="fill:rgb(0,0,0)" />
<rect x="1000" y="374" width="150" height="1" style="fill:rgb(0,0,0)" />
<rect x="1000" y="377" width="150" height="1" style="fill:rgb(0,0,0)" />
<rect x="1000" y="378" width="150" height="1" style="fill:rgb(0,0,0)" />
<rect x="1000" y="380" width="150" height="1" style="fill:rgb(0,0,0)" />
<rect x="1000" y="381" width="150" height="1" style="fill:rgb(0,0,0)" />
<rect x="1000" y="382" width="150" height="1" style="fill:rgb(0,0,0)" />
<rect x="1000" y="383" width="150" height="1" style="fill:rgb(0,0,0)" />
<rect x="1000" y="385" width="150" height="1" style="fill:rgb(0,0,0)" />
<rect x="1000" y="386" width="150" height="1" style="fill:rgb(0,0,0)" />
<rect x="1000" y="388" width="150" height="1" style="fill:rgb(0,0,0)" />
<rect x="1000" y="390" width="150" height="1" style="fill:rgb(0,0,0)" />
<rect x="1000" y="391" width="150" height="1" style="fill:rgb(0,0,0)" />
<rect x="1000" y="394" width="150" height="1" style="fill:rgb(0,0,0)" />
<rect x="1000" y="395" width="150" height="1" style="fill:rgb(0,0,0)" />
<rect x="1000" y="396" width="150" height="1" style="fill:rgb(0,0,0)" />
<rect x="1000" y="399" width="150" height="1" style="fill:rgb(0,0,0)" />
<rect x="1000" y="404" width="150" height="1" style="fill:rgb(0,0,0)" />
<rect x="1000" y="405" width="150" height="1" style="fill:rgb(0,0,0)" />
<rect x="1000" y="407" width="150" height="1" style="fill:rgb(0,0,0)" />
<rect x="1000" y="410" width="150" height="1" style="fill:rgb(0,0,0)" />
<rect x="1000" y="411" width="150" height="1" style="fill:rgb(0,0,0)" />
<rect x="1000" y="415" width="150" height="1" style="fill:rgb(0,0,0)" />
<rect x="1000" y="416" width="150" height="1" style="fill:rgb(0,0,0)" />
<rect x="1000" y="417" width="150" height="1" style="fill:rgb(0,0,0)" />
<rect x="1000" y="419" width="150" height="1" style="fill:rgb(0,0,0)" />
<rect x="1000" y="421" width="150" height="1" style="fill:rgb(0,0,0)" />
<rect x="1000" y="422" width="150" height="1" style="fill:rgb(0,0,0)" />
</svg>
